<?xml version="1.0" standalone="no"?>
<!DOCTYPE svg PUBLIC "-//W3C//DTD SVG 20010904//EN"
 "http://www.w3.org/TR/2001/REC-SVG-20010904/DTD/svg10.dtd">
<svg version="1.0" xmlns="http://www.w3.org/2000/svg"
 width="365.000000pt" height="450.000000pt" viewBox="0 0 365.000000 450.000000"
 preserveAspectRatio="xMidYMid meet">

<g transform="translate(0.000000,450.000000) scale(0.100000,-0.100000)"
fill="#000000" stroke="none">
<path d="M2629 4457 c-71 -20 -143 -72 -226 -163 -79 -87 -111 -107 -92 -58 5
15 8 28 6 30 -2 2 -51 -45 -110 -104 -117 -117 -203 -239 -221 -311 l-12 -46
-67 -6 c-54 -4 -77 -12 -113 -38 l-45 -31 -28 20 c-41 28 -78 41 -141 49 -53
6 -55 7 -61 41 -3 19 -14 51 -25 70 l-19 35 -3 -30 c-3 -27 -7 -22 -42 50 -31
65 -59 101 -149 195 -100 104 -110 112 -111 88 0 -16 -4 -28 -9 -28 -5 0 -33
29 -61 65 -154 194 -387 235 -466 82 -28 -52 -90 -308 -110 -447 -17 -123 -41
-180 -117 -281 -58 -78 -107 -163 -107 -186 0 -11 5 -10 25 3 28 18 116 46
123 39 3 -2 0 -10 -5 -17 -10 -13 -46 -119 -57 -170 -7 -30 2 -36 22 -16 28
28 20 -6 -22 -88 -66 -133 -94 -228 -87 -299 1 -11 126 197 168 280 35 69 117
189 151 220 31 30 133 81 177 90 19 4 3 -8 -45 -34 -42 -23 -98 -61 -125 -86
-48 -44 -49 -45 -12 -24 44 25 64 16 27 -11 -14 -10 -34 -26 -45 -37 -25 -22
-125 -164 -150 -213 -23 -45 -127 -370 -122 -384 2 -5 22 14 44 44 63 84 105
129 99 105 -3 -11 -16 -63 -30 -116 -13 -52 -38 -130 -56 -173 -56 -135 -165
-256 -231 -256 -37 0 -44 -14 -13 -29 35 -16 144 -14 194 4 70 25 72 21 29
-57 -49 -89 -138 -336 -184 -512 -37 -140 -40 -156 -26 -156 4 0 35 18 67 40
32 21 60 38 62 35 2 -2 -9 -50 -23 -107 -22 -85 -28 -132 -32 -270 -5 -166 2
-288 16 -272 4 5 16 32 26 59 10 28 32 77 49 110 l30 60 8 -73 c19 -184 101
-380 230 -555 28 -37 52 -66 54 -64 3 2 0 35 -6 73 -5 38 -10 87 -10 109 l0
40 42 -75 c22 -41 52 -93 67 -114 30 -46 122 -148 127 -143 3 2 -3 21 -12 43
l-16 39 22 -20 c12 -11 65 -73 116 -137 94 -117 145 -165 124 -116 -12 30 -51
190 -47 195 2 1 20 -21 40 -49 44 -65 214 -235 223 -225 4 4 -2 24 -13 45 -12
20 -33 63 -47 96 l-26 59 62 -57 c35 -31 91 -82 126 -113 34 -30 65 -53 68
-50 3 3 -6 24 -21 47 -15 23 -25 44 -22 46 4 4 142 -60 260 -121 l68 -36 82
43 c45 23 104 55 130 70 27 16 64 35 83 43 l34 14 -35 -46 c-89 -116 12 -50
150 99 36 39 65 68 65 65 0 -17 -35 -98 -61 -140 -16 -27 -28 -54 -27 -59 6
-17 134 108 207 201 40 52 67 79 69 70 2 -9 -13 -60 -32 -114 -20 -54 -34
-100 -32 -102 2 -2 62 57 132 132 71 76 139 141 150 145 27 11 114 126 157
207 17 35 35 63 40 63 17 0 -6 -174 -28 -210 -5 -8 -3 -11 6 -8 8 2 42 44 76
94 103 148 167 295 192 439 19 110 21 116 32 109 15 -9 79 -144 80 -169 1 -51
19 31 25 118 7 95 -5 242 -33 405 -8 51 -12 96 -9 99 3 3 31 -18 61 -47 31
-29 58 -50 61 -47 9 9 -28 163 -78 316 -60 187 -97 283 -145 375 l-35 69 29
-7 c50 -13 217 -18 243 -8 l25 10 -30 7 c-52 13 -100 42 -137 83 -48 53 -111
163 -136 237 -25 74 -66 245 -59 251 5 5 71 -81 106 -139 13 -21 25 -36 28
-33 3 3 -13 67 -35 143 -22 76 -46 160 -52 186 -7 26 -37 89 -66 138 -30 50
-54 94 -54 96 0 20 99 -132 155 -237 37 -71 71 -117 79 -110 13 14 -37 196
-75 271 -29 58 -39 90 -36 109 4 16 -6 60 -23 110 -16 47 -27 86 -25 88 13 13
89 -13 115 -40 l30 -30 0 29 c0 38 -29 91 -110 198 -37 50 -75 105 -84 123 -9
18 -28 94 -41 170 -13 75 -37 180 -53 232 -16 52 -33 113 -36 135 -4 22 -17
58 -29 79 -41 73 -96 95 -178 73z m91 -118 c37 -36 41 -45 36 -73 -5 -25 1
-49 24 -97 19 -41 39 -115 56 -204 38 -203 49 -237 94 -294 22 -28 40 -53 40
-56 0 -3 -18 4 -40 15 -36 18 -64 51 -65 75 -1 6 -6 30 -13 55 -6 25 -25 104
-42 175 -17 72 -44 172 -60 223 -17 51 -30 103 -30 117 0 27 -9 32 -27 14 -14
-14 -36 -2 -29 16 7 20 -42 29 -68 12 -31 -21 -101 -83 -158 -142 -34 -36 -48
-45 -48 -32 0 63 198 236 271 237 9 0 36 -18 59 -41z m-1827 7 c55 -25 142
-98 178 -147 33 -47 17 -44 -47 9 -62 52 -144 99 -144 83 0 -5 -12 -3 -27 5
-36 18 -72 19 -55 2 13 -13 16 -29 5 -27 -5 1 -19 1 -33 0 -20 -1 -22 -3 -10
-11 12 -8 11 -10 -5 -10 -16 0 -23 -10 -32 -42 -6 -24 -23 -77 -37 -118 -15
-41 -35 -122 -46 -181 -10 -59 -27 -132 -38 -163 l-19 -56 23 15 23 15 -16
-38 c-8 -20 -22 -50 -30 -67 l-16 -30 23 20 22 20 -3 -20 c-3 -14 -20 -25 -58
-37 -30 -10 -56 -16 -58 -14 -3 2 15 22 39 44 23 22 40 44 36 47 -4 4 -27 -4
-52 -18 -26 -14 -46 -23 -46 -20 0 3 17 26 39 52 52 62 68 103 91 240 26 149
46 226 70 277 11 22 20 58 20 79 0 32 7 44 42 77 50 46 85 49 161 14z m52
-245 c28 -16 58 -37 65 -47 16 -20 -93 37 -120 62 -23 23 1 16 55 -15z m1585
-21 c-48 -43 -76 -54 -44 -19 18 21 74 59 84 59 3 -1 -15 -19 -40 -40z m-1833
-22 c-3 -8 -6 -5 -6 6 -1 11 2 17 5 13 3 -3 4 -12 1 -19z m614 -82 c27 -45 61
-116 74 -159 29 -90 31 -104 8 -62 -21 40 -54 76 -64 69 -4 -2 -15 8 -23 23
l-15 28 5 -35 c5 -34 5 -34 -11 -15 -9 11 -22 29 -30 40 -12 18 -14 18 -14 3
-1 -33 -18 -18 -38 35 -11 28 -28 70 -37 92 l-17 40 60 -62 c34 -33 61 -60 61
-60 0 1 -9 36 -20 77 -11 41 -20 79 -20 84 0 19 34 -22 81 -98z m969 100 c0
-2 -11 -29 -25 -60 -37 -84 -32 -99 16 -43 22 26 44 47 49 47 5 0 -2 -24 -15
-52 -14 -29 -25 -60 -25 -68 0 -8 -12 -33 -26 -55 -15 -22 -24 -32 -20 -22 9
28 -20 20 -48 -14 l-26 -31 0 26 c0 25 -1 25 -40 -16 -32 -35 -40 -39 -40 -23
1 51 91 214 158 288 23 24 42 35 42 23z m230 -131 c-47 -30 -95 -55 -108 -55
-13 0 -32 -5 -43 -10 -36 -20 -19 0 24 27 42 27 183 91 202 92 6 0 -28 -24
-75 -54z m-1485 -4 c61 -29 131 -80 90 -66 -18 6 -43 13 -70 18 -6 2 -40 22
-75 46 -51 34 -59 42 -35 36 17 -3 57 -19 90 -34z m-18 -133 c13 -12 22 -22
20 -24 -1 -1 -42 9 -92 21 -66 17 -83 24 -65 28 47 10 113 -2 137 -25z m1606
5 c-13 -2 -33 -2 -45 0 -13 2 -3 4 22 4 25 0 35 -2 23 -4z m-1738 -95 c27 -8
34 -13 20 -15 -11 -2 -42 3 -70 11 -42 12 -45 14 -20 15 17 1 48 -4 70 -11z
m1025 -11 c0 -2 -11 -18 -25 -37 -14 -19 -25 -37 -25 -42 0 -4 28 8 63 26 34
19 73 37 86 41 l24 7 -28 -36 c-21 -28 -25 -40 -17 -48 8 -8 12 -9 12 -1 0 6
7 14 16 17 8 3 12 2 9 -4 -9 -14 6 -12 56 6 54 20 193 24 211 6 9 -9 5 -12
-21 -12 -28 0 -59 -16 -113 -60 -4 -3 28 -4 70 -2 54 3 88 -1 112 -11 l35 -15
-40 -1 c-22 -1 -58 -7 -80 -13 -40 -12 -40 -12 -10 -16 101 -11 276 -75 310
-112 16 -18 13 -18 -49 3 -62 20 -85 20 -72 -1 3 -5 47 -33 98 -62 91 -53 249
-192 234 -207 -4 -4 -35 20 -69 53 -98 96 -235 183 -293 189 -19 2 -43 10 -53
19 -25 23 -98 46 -140 45 -31 -1 -29 -3 22 -14 32 -7 64 -18 70 -25 9 -10 7
-11 -10 -5 -26 7 -33 -12 -8 -21 29 -11 15 -23 -20 -17 -19 3 -35 3 -35 0 0
-2 24 -16 53 -31 30 -14 62 -35 72 -46 18 -20 17 -20 -31 -20 -35 0 -45 -3
-34 -10 11 -7 4 -10 -27 -10 -58 0 -54 -13 7 -29 28 -7 50 -18 50 -24 0 -7 12
-18 28 -25 15 -6 45 -28 67 -47 l40 -36 -39 16 c-47 18 -51 19 -37 2 6 -8 8
-17 4 -20 -3 -4 12 -26 34 -50 43 -46 64 -104 44 -117 -7 -4 -9 -15 -5 -26 7
-18 5 -17 -17 2 -31 28 -75 50 -119 59 -30 7 -32 9 -15 15 17 6 14 9 -17 15
-47 9 -41 21 14 30 41 7 41 8 17 21 -13 7 -48 13 -76 14 -32 0 -53 4 -53 11 0
7 -10 9 -26 5 -52 -13 -12 12 63 40 73 26 76 29 48 35 -53 12 -115 9 -150 -5
-19 -8 -35 -12 -35 -9 0 3 -9 -2 -20 -12 -40 -36 -21 8 20 47 44 41 44 46 2
24 -34 -18 -85 -71 -105 -111 -9 -16 -17 -23 -17 -15 0 12 -3 12 -14 -3 -13
-17 -14 -17 -20 0 -10 26 4 117 23 146 9 14 34 40 56 58 30 24 34 31 18 26
-32 -7 -28 6 8 27 17 10 28 20 25 23 -3 3 -17 -4 -33 -15 -29 -20 -108 -62
-118 -62 -17 0 0 40 33 73 37 38 30 40 -28 10 -14 -7 -30 -13 -36 -13 -14 0
-67 -57 -93 -100 -11 -19 -21 -28 -21 -20 0 28 47 114 94 174 25 33 46 65 46
72 0 7 12 22 28 33 15 11 22 21 15 21 -6 0 -39 -30 -73 -67 -46 -52 -60 -62
-55 -43 5 24 5 24 -9 5 -40 -53 -47 -60 -45 -45 1 8 0 26 -1 40 -2 18 -4 20
-7 7 -2 -9 -9 -15 -14 -12 -5 4 -9 -4 -9 -17 l-1 -23 -14 25 c-11 19 -14 21
-15 8 0 -22 -13 -23 -30 -3 -7 9 -15 13 -18 10 -3 -3 -11 0 -19 6 -8 7 -13 8
-13 1 0 -5 7 -15 16 -23 26 -22 72 -94 80 -125 6 -27 4 -26 -24 13 -34 46 -74
73 -80 55 -2 -7 -16 -5 -40 5 l-37 15 26 -29 c14 -15 37 -44 50 -63 l24 -35
-54 40 c-42 30 -64 39 -98 40 -41 2 -42 1 -21 -13 75 -49 119 -125 118 -201
l-1 -26 -19 24 c-12 14 -20 18 -20 10 0 -8 -12 0 -26 16 -19 22 -24 25 -19 10
4 -13 -8 -5 -34 22 -23 23 -50 47 -62 53 -20 11 -20 11 -3 -16 16 -24 27 -54
19 -54 -1 0 -19 7 -38 15 -40 17 -134 20 -156 6 -11 -7 -4 -11 25 -17 49 -8
76 -22 69 -35 -4 -5 -16 -9 -28 -9 -21 -1 -21 -1 3 -15 24 -14 22 -14 -38 -15
-35 0 -73 -5 -85 -11 -20 -11 -19 -12 13 -23 39 -13 52 -36 21 -36 -12 0 -21
-4 -21 -10 0 -5 -9 -10 -19 -10 -11 0 -21 -3 -23 -8 -1 -4 -27 -23 -56 -41
-30 -19 -64 -51 -77 -72 -33 -51 -45 -56 -29 -11 7 20 13 48 14 62 1 39 43
132 80 178 18 23 31 44 29 47 -3 2 -22 -7 -43 -21 -55 -38 -54 -23 1 26 26 23
48 47 48 53 0 6 16 21 36 32 20 11 43 28 53 37 16 16 14 17 -39 15 -30 -2 -55
1 -55 5 0 4 20 21 44 37 25 17 51 37 58 44 7 8 20 17 28 20 8 4 -2 5 -23 3
-34 -4 -37 -3 -26 10 7 9 29 24 48 35 27 15 30 18 11 14 -47 -12 -79 -27 -84
-40 -6 -15 -126 -78 -134 -70 -3 2 6 14 19 25 l24 21 -25 -7 c-64 -17 -253
-130 -322 -192 -66 -60 -41 -18 29 49 42 39 112 89 181 129 88 51 107 66 89
68 -13 2 -43 -4 -67 -12 -54 -19 -60 -15 -21 13 44 32 133 69 204 85 34 8 76
18 92 22 l30 7 -25 7 c-14 5 -43 9 -65 10 l-40 2 43 19 c23 11 65 23 93 26 49
6 50 7 28 19 -22 12 -21 13 14 7 20 -3 37 -3 37 0 0 3 -35 11 -77 18 -61 10
-72 14 -53 20 14 4 50 7 80 8 48 1 85 -6 219 -36 l25 -6 -22 37 c-12 20 -22
39 -22 41 0 3 29 -10 65 -27 35 -18 68 -29 72 -25 4 4 -1 21 -11 37 -13 23
-14 30 -4 30 18 0 68 -37 101 -75 l26 -30 34 34 c46 44 127 94 127 78z m1035
-128 c18 -21 19 -22 2 -16 -10 4 -26 7 -35 7 -9 0 -23 4 -31 9 -12 8 -12 12
-2 25 15 18 35 10 66 -25z m-2220 -14 c-28 -12 -57 -31 -65 -40 -14 -17 -14
-17 18 -1 64 33 41 10 -26 -26 -78 -43 -122 -61 -122 -50 0 16 110 92 166 116
74 31 96 32 29 1z m2050 -118 c39 -19 93 -57 82 -57 -12 0 -95 40 -132 65 -46
30 -16 26 50 -8z m-2182 -241 c-40 -61 -61 -54 -27 9 15 28 52 58 62 50 1 -1
-15 -28 -35 -59z m1007 -40 c0 -6 -13 5 -30 24 -16 19 -29 40 -29 45 0 6 13
-6 29 -25 17 -19 30 -39 30 -44z m-809 -87 c-56 -66 -86 -117 -76 -127 3 -3
36 23 73 59 103 100 111 102 39 6 -71 -93 -104 -151 -138 -244 -21 -56 -67
-143 -75 -143 -2 0 9 26 24 58 39 76 53 138 16 69 -14 -27 -27 -47 -29 -45 -2
1 0 23 5 48 5 25 7 46 5 48 -5 5 -35 -60 -35 -76 0 -9 -3 -12 -7 -9 -7 8 -60
-92 -109 -206 -35 -81 -62 -120 -97 -139 -12 -6 -3 12 21 44 49 65 77 131 135
319 61 196 66 205 131 276 52 56 156 136 165 128 2 -2 -20 -32 -48 -66z m1992
-60 c93 -86 119 -129 157 -257 24 -83 22 -102 -5 -43 -10 22 -23 37 -29 35 -7
-3 -18 7 -24 21 -7 14 -16 24 -21 21 -5 -3 -14 1 -21 9 -7 8 -17 12 -22 9 -13
-8 -46 24 -72 70 -35 63 -42 75 -62 98 -15 18 -11 17 19 -6 70 -52 61 -12 -22
97 -51 66 -51 66 -17 46 18 -11 72 -56 119 -100z m-922 41 c-4 -20 -10 -30
-14 -23 -4 6 -2 23 4 37 16 34 19 29 10 -14z m-24 -77 c-3 -10 -5 -4 -5 12 0
17 2 24 5 18 2 -7 2 -21 0 -30z m-71 10 c8 -11 13 -13 14 -5 0 6 4 12 10 12 5
0 18 -28 27 -61 11 -40 19 -55 23 -44 5 16 23 -12 75 -115 11 -22 25 -27 25
-8 0 9 3 9 12 0 10 -10 10 -15 -1 -21 -18 -12 -5 -31 22 -31 20 0 20 -1 5 -17
-16 -15 -16 -17 4 -27 11 -6 20 -15 19 -20 -2 -5 3 -12 11 -17 7 -5 13 -12 13
-16 1 -4 18 -41 38 -80 20 -40 37 -76 37 -80 0 -4 -14 8 -31 27 -17 19 -26 27
-19 17 27 -37 -1 -27 -43 16 -33 35 -49 45 -66 40 -28 -7 -27 -17 4 -31 33
-15 32 -32 -2 -32 -26 0 -26 -1 -7 -15 19 -14 19 -14 -1 -15 -17 0 -17 -2 -5
-10 13 -9 13 -10 0 -10 -11 -1 -10 -4 4 -15 19 -14 18 -15 -10 -15 l-29 -1 28
-15 c35 -19 34 -22 -3 -16 -17 2 -30 0 -30 -6 0 -8 -10 -8 -32 0 -24 9 -33 8
-36 0 -5 -16 -42 -15 -42 1 0 8 -3 9 -8 1 -12 -18 -36 -22 -50 -7 -16 16 -63
17 -117 2 -39 -11 -90 -43 -163 -104 -34 -29 -35 -29 -23 -5 11 24 11 24 -3 6
-16 -20 -56 -118 -56 -136 0 -6 8 -10 17 -10 13 0 8 -9 -18 -36 -27 -29 -29
-34 -11 -24 22 11 23 10 17 -9 -5 -16 -2 -21 12 -21 13 0 8 -9 -22 -35 -45
-39 -39 -46 11 -14 19 11 34 16 34 10 0 -5 -9 -12 -19 -16 -11 -3 -23 -13 -27
-23 -11 -25 -13 -72 -3 -72 5 0 9 5 9 10 0 6 5 10 11 10 7 0 4 -11 -6 -26 -14
-22 -15 -28 -4 -35 8 -5 20 -7 27 -4 6 2 12 0 12 -5 0 -5 -8 -11 -17 -13 -15
-4 -15 -6 4 -12 13 -4 21 -11 18 -15 -3 -4 5 -11 18 -15 19 -6 19 -8 5 -12
-25 -6 -23 -23 3 -23 12 0 17 -4 14 -11 -4 -6 -14 -8 -22 -5 -8 4 -11 2 -7 -5
14 -23 75 -40 122 -34 33 4 41 2 27 -4 -11 -5 -44 -10 -73 -10 -48 -1 -56 2
-98 41 -25 23 -60 69 -77 103 -29 55 -32 67 -31 150 1 86 22 168 80 309 5 14
4 17 -5 12 -8 -5 -6 5 4 31 9 21 23 62 31 92 8 30 39 109 68 175 43 97 58 120
72 118 15 -3 16 -1 5 11 -7 9 -8 18 -2 21 5 3 12 0 14 -6 3 -7 6 2 6 20 1 37
15 42 26 10 7 -21 8 -20 12 10 2 18 9 30 14 27 5 -4 9 2 9 13 0 10 11 29 24
42 14 12 28 36 32 53 4 22 8 26 15 16 7 -11 9 -11 9 -1 0 24 29 82 41 82 6 0
18 -8 25 -17z m-682 -133 c-38 -40 -62 -53 -47 -25 8 13 72 65 81 65 2 0 -13
-18 -34 -40z m230 14 c21 -8 2 -34 -25 -34 -22 0 -24 11 -7 28 14 14 12 14 32
6z m864 -12 c2 -7 -5 -12 -17 -12 -14 0 -19 5 -14 15 6 17 25 15 31 -3z m62
-41 c0 -15 -41 -61 -55 -61 -7 0 -21 8 -32 18 -10 9 -14 14 -9 10 19 -15 45
-8 63 17 18 25 33 32 33 16z m-916 -41 c11 0 28 7 38 17 22 20 24 11 2 -11
-22 -23 -68 -20 -90 6 l-19 22 25 -17 c13 -9 33 -17 44 -17z m933 -45 c-15
-14 -33 -25 -39 -25 -6 0 4 11 23 24 44 32 51 32 16 1z m-1172 -55 c-16 -18
-16 -20 -2 -20 20 0 23 -16 5 -24 -7 -4 2 -4 21 -1 l35 5 -24 -25 c-28 -30
-23 -39 14 -26 36 14 33 5 -6 -20 l-33 -20 40 6 40 6 -47 -30 c-57 -37 -64
-58 -12 -36 45 19 48 19 40 0 -3 -8 0 -15 7 -15 21 0 66 44 87 85 21 39 21 39
16 8 -5 -31 -5 -31 21 -18 38 20 40 11 9 -29 -37 -49 -32 -56 11 -15 21 20 33
27 30 17 -4 -10 -2 -18 4 -18 12 0 -35 -65 -90 -123 -20 -21 -54 -48 -76 -59
-22 -11 -34 -14 -27 -7 16 17 16 59 -1 59 -7 0 -32 -14 -55 -31 -47 -35 -51
-31 -21 17 11 19 17 34 12 34 -13 0 -125 -69 -168 -105 -53 -43 -97 -107 -89
-128 9 -23 27 -9 21 15 -3 11 -3 17 0 14 4 -3 13 0 21 7 9 6 1 -16 -17 -50
-19 -35 -38 -60 -44 -56 -6 3 -7 1 -3 -6 7 -11 -21 -67 -30 -59 -2 2 1 21 7
42 6 21 8 40 6 42 -7 7 -35 -77 -63 -185 -25 -101 -51 -149 -41 -76 3 22 9 65
12 95 l5 55 -22 -60 -22 -60 -7 54 c-8 58 7 124 44 196 29 57 61 98 152 190
44 44 95 101 114 125 21 28 -1 11 -59 -48 -51 -51 -94 -91 -96 -89 -2 1 37 56
86 122 50 66 90 121 90 123 0 5 -64 -30 -100 -56 -44 -30 121 129 174 169 46
34 56 37 31 9z m-339 -105 c-57 -88 -88 -157 -87 -192 0 -18 -13 -63 -30 -99
-16 -37 -28 -69 -25 -71 2 -3 7 5 11 17 4 12 26 45 50 74 23 29 48 63 55 75 6
13 14 21 16 18 2 -2 -25 -72 -61 -156 -48 -109 -78 -199 -110 -324 -24 -94
-53 -192 -64 -217 -12 -25 -19 -34 -17 -20 9 47 26 155 41 257 8 56 28 139 45
184 17 46 24 77 17 69 -15 -16 -54 -129 -143 -415 -73 -235 -72 -232 -73 -220
-2 17 47 286 59 325 14 48 13 55 -6 39 -15 -12 -16 -10 -10 21 4 23 -4 10 -23
-35 -26 -63 -87 -152 -97 -142 -3 3 8 38 24 78 16 41 46 124 67 184 49 146
132 314 195 397 59 78 191 221 197 214 3 -2 -12 -30 -31 -61z m1713 24 c34
-15 41 -16 31 -4 -26 32 43 0 73 -33 18 -20 18 -20 -2 -15 -12 3 -24 9 -27 14
-3 5 -10 9 -15 9 -13 0 16 -55 55 -105 l30 -40 -47 43 c-25 23 -51 42 -57 42
-12 0 90 -129 135 -170 39 -36 90 -108 124 -176 17 -32 30 -53 31 -46 0 7 -5
22 -11 34 -6 11 -8 22 -5 25 11 12 77 -149 83 -200 5 -48 4 -51 -10 -31 -9 11
-20 36 -26 55 -8 27 -9 14 -5 -61 6 -115 -4 -106 -41 36 -36 136 -85 224 -170
309 -72 71 -124 112 -138 107 -4 -1 -21 5 -37 13 -40 21 -43 19 -25 -15 21
-41 19 -45 -11 -21 -15 12 -32 21 -38 21 -16 1 -86 95 -86 117 0 10 -7 29 -16
41 -9 13 -14 25 -11 28 3 3 14 -10 25 -28 19 -31 72 -78 88 -78 3 0 4 7 0 15
-7 19 -2 19 35 -1 66 -34 38 12 -41 69 -21 15 -22 17 -5 13 78 -18 85 -18 79
-2 -3 9 -25 27 -48 41 l-41 25 40 -6 c22 -4 60 -15 84 -25z m340 -55 c93 -106
255 -375 286 -474 7 -23 5 -22 -25 10 -19 19 -44 53 -58 75 -30 51 -27 34 27
-144 51 -167 54 -215 7 -116 -18 39 -50 120 -71 180 -20 61 -47 131 -60 157
-12 26 -18 49 -14 50 11 4 -82 197 -131 267 -49 73 -27 70 39 -5z m-734 -84
c3 -5 1 -10 -4 -10 -6 0 -11 5 -11 10 0 6 2 10 4 10 3 0 8 -4 11 -10z m774
-169 c34 -42 92 -155 109 -211 19 -60 52 -262 51 -310 l-1 -45 -14 45 c-8 25
-24 87 -35 138 -13 58 -44 146 -84 235 -71 159 -81 187 -67 187 6 0 24 -18 41
-39z m-946 -4 c44 -19 87 -75 93 -124 5 -37 4 -36 -25 22 -16 33 -40 66 -53
74 l-23 14 19 -22 c11 -12 21 -35 22 -51 l2 -29 -67 5 c-36 3 -78 10 -94 16
-34 13 -97 4 -147 -22 -37 -19 -40 -19 -49 -2 -9 15 -12 13 -23 -15 -15 -39
-28 -43 -28 -9 0 61 40 117 105 148 34 16 55 18 137 14 53 -3 112 -12 131 -19z
m247 -41 c37 -61 73 -203 73 -288 0 -66 -5 -85 -34 -144 -45 -89 -99 -129
-173 -128 -28 0 -60 6 -71 12 -18 11 -17 12 9 6 20 -5 27 -3 22 4 -4 7 3 8 22
2 16 -4 36 -4 43 1 10 6 7 9 -11 10 -22 1 -21 2 8 10 50 15 98 64 133 136 30
61 31 69 25 141 -8 91 -30 181 -57 234 -24 47 -18 50 11 4z m-470 -243 c0 -2
-12 -8 -26 -13 -26 -10 -48 -5 -40 9 5 7 66 11 66 4z m280 -2 c0 -17 -14 -19
-45 -5 l-30 13 38 1 c20 0 37 -4 37 -9z m1210 -134 c35 -91 38 -108 8 -53 -23
44 -58 143 -57 160 0 13 8 -4 49 -107z m-1785 73 c-3 -5 -12 -10 -18 -10 -7 0
-6 4 3 10 19 12 23 12 15 0z m-511 -80 c-8 -33 -19 -71 -24 -85 -13 -33 -13
-44 0 -25 7 11 10 12 10 2 0 -8 17 8 39 35 40 50 91 101 91 90 0 -3 -9 -22
-21 -41 -11 -19 -17 -40 -14 -47 4 -6 3 -14 -2 -18 -9 -5 -63 -149 -63 -167 0
-13 98 87 137 139 19 26 38 46 40 43 3 -3 -20 -53 -52 -111 -31 -59 -54 -109
-52 -112 3 -3 10 4 16 15 5 10 31 36 56 57 l47 38 -30 -60 c-36 -70 -56 -160
-37 -167 6 -2 17 11 24 31 7 19 14 33 17 31 5 -6 -32 -118 -59 -178 -34 -72
-58 -167 -64 -257 -3 -40 -9 -73 -14 -73 -8 0 -23 126 -24 207 0 28 -3 49 -6
47 -8 -5 -29 -204 -32 -299 l-2 -70 -14 90 c-9 59 -12 134 -9 224 5 124 4 132
-9 100 -8 -19 -23 -68 -33 -109 -18 -72 -19 -73 -19 -30 -1 46 24 274 34 314
3 11 -3 3 -14 -19 -10 -23 -26 -78 -36 -123 -10 -45 -21 -82 -25 -82 -9 0 -19
-28 -31 -80 -8 -38 -4 71 6 145 4 24 -8 -1 -30 -65 -21 -58 -39 -107 -42 -110
-25 -23 52 408 86 480 11 25 11 25 7 -5 -5 -27 -4 -27 15 10 10 22 18 50 16
62 -2 12 -1 20 3 18 4 -3 12 13 18 34 8 32 96 181 106 181 2 0 -3 -27 -10 -60z
m1816 -17 c56 -119 67 -149 63 -178 -3 -17 4 -52 16 -80 16 -40 20 -45 21 -25
5 81 64 -175 73 -315 5 -65 4 -73 -5 -45 -5 19 -22 76 -37 125 l-28 90 3 -90
3 -90 -15 60 c-8 33 -20 79 -26 102 -6 24 -20 53 -31 65 l-20 23 6 -55 c4 -30
11 -95 17 -144 15 -130 5 -126 -39 14 -11 36 -18 52 -16 35 11 -66 17 -282 8
-288 -5 -3 -17 41 -27 99 -14 87 -39 174 -49 174 -1 0 0 -29 1 -65 3 -44 -1
-71 -9 -82 -16 -18 -12 -30 -55 182 -14 72 -32 142 -40 157 -17 33 -18 41 -3
32 8 -5 9 6 5 37 l-7 44 25 -40 c43 -69 46 -71 29 -25 -16 48 -55 152 -68 185
-5 11 -5 17 -1 14 7 -7 103 -136 123 -166 10 -15 11 -11 6 26 -4 31 -2 45 8
52 11 6 9 18 -13 61 -14 29 -29 64 -33 78 -7 23 -7 24 10 10 10 -8 34 -35 54
-60 l36 -46 2 48 c1 26 -4 66 -12 88 -20 55 -2 50 25 -7z m-1809 -36 c-10 -9
-11 -8 -5 6 3 10 9 15 12 12 3 -3 0 -11 -7 -18z m445 -169 c25 -77 74 -138
109 -138 8 0 15 -7 15 -15 0 -35 -78 6 -110 57 -23 38 -60 150 -60 182 0 32
15 4 46 -86z m908 45 c-19 -105 -65 -179 -126 -202 -37 -14 -45 4 -9 19 53 21
68 45 115 173 21 57 29 61 20 10z m-1585 -70 c-11 -57 -19 -67 -19 -24 0 28
14 71 24 71 2 0 -1 -21 -5 -47z m947 -28 c4 -8 12 -15 20 -15 7 0 21 -13 31
-30 20 -35 33 -39 33 -10 0 26 27 37 46 18 8 -8 20 -48 27 -89 l13 -74 8 65
c16 136 24 147 52 75 18 -49 26 -55 40 -26 9 18 97 91 110 91 14 0 -3 -146
-20 -175 -9 -16 -14 -21 -11 -10 14 43 17 113 7 131 -9 15 -11 8 -12 -39 0
-67 -24 -122 -70 -161 -38 -31 -100 -37 -100 -8 -1 16 -1 16 -14 0 -18 -25
-68 -22 -102 4 -15 13 -24 16 -19 8 4 -8 -6 -2 -23 14 -17 16 -38 49 -47 74
-15 46 -20 127 -9 156 8 20 33 21 40 1z m-94 -57 c-10 -22 -11 -21 -11 12 -1
26 2 31 11 22 8 -8 8 -17 0 -34z m548 12 c0 -16 -4 -30 -10 -30 -5 0 -10 14
-10 30 0 17 5 30 10 30 6 0 10 -13 10 -30z m-1485 -47 c-7 -75 -22 -108 -17
-40 4 62 12 107 19 107 3 0 2 -30 -2 -67z m56 11 c-6 -16 -15 -49 -21 -73 -19
-75 -23 -36 -5 44 10 42 22 72 27 67 4 -4 4 -21 -1 -38z m508 -54 c-49 -111
-79 -241 -77 -340 l1 -75 7 65 c8 72 22 113 46 138 15 15 16 14 9 -7 -8 -27 4
-141 15 -141 4 0 13 21 19 46 12 47 77 183 105 219 15 20 15 19 16 -6 0 -14
-9 -52 -20 -84 -21 -61 -27 -145 -10 -145 6 0 10 8 11 18 0 11 5 6 13 -13 8
-16 16 -73 19 -125 6 -85 26 -173 75 -328 15 -47 -8 -27 -33 28 -13 29 -21 37
-30 30 -9 -7 -17 1 -30 30 -19 41 -30 49 -38 28 -3 -9 -12 -5 -26 12 -13 14
-20 21 -18 15 38 -82 48 -108 44 -112 -12 -12 -100 174 -125 267 l-10 35 -2
-45 -2 -45 -13 60 -12 60 -3 -65 c-2 -62 -2 -63 -12 -30 -6 21 -8 101 -5 200
4 148 7 172 31 235 23 60 81 165 91 165 2 0 -14 -40 -36 -90z m1768 38 c-3 -8
-6 -5 -6 6 -1 11 2 17 5 13 3 -3 4 -12 1 -19z m-429 -174 c-4 -23 -78 129 -77
159 0 14 15 -7 41 -60 22 -45 38 -89 36 -99z m-1287 79 c-12 -20 -14 -14 -5
12 4 9 9 14 11 11 3 -2 0 -13 -6 -23z m409 -102 c21 -20 56 -43 78 -49 127
-38 286 21 342 127 16 31 19 33 20 13 1 -58 -59 -114 -156 -147 -67 -23 -190
-23 -235 0 -83 43 -130 96 -129 147 1 19 4 17 21 -15 11 -21 37 -55 59 -76z
m731 -36 c22 -49 45 -109 51 -134 15 -62 25 -71 33 -27 9 43 -2 152 -20 213
-7 23 -11 43 -9 43 2 0 17 -26 33 -57 34 -69 58 -200 51 -283 l-2 -25 -7 25
c-6 21 -11 13 -31 -53 -13 -43 -27 -80 -32 -83 -4 -3 -9 30 -9 73 -1 43 -4 67
-6 53 -11 -64 -26 -102 -47 -122 -13 -13 -45 -63 -71 -113 -26 -49 -51 -90
-56 -90 -6 0 -14 -7 -20 -15 -9 -12 -10 -11 -4 5 43 131 79 351 71 444 l-6 66
16 -50 c9 -27 16 -58 17 -67 2 -31 16 -8 23 39 6 42 3 69 -26 216 -12 62 8 39
51 -58z m-168 -182 c0 -114 1 -115 6 -33 l6 85 7 -55 c10 -71 9 -160 -2 -185
-7 -15 -9 -9 -10 25 l-1 45 -17 -50 c-15 -44 -137 -255 -148 -255 -3 0 16 44
90 201 31 65 41 119 51 252 4 54 9 96 12 93 3 -3 6 -58 6 -123z m-760 38 c-6
-76 4 -170 15 -142 3 9 9 4 18 -15 12 -26 13 -23 8 41 l-4 70 23 -75 c13 -41
33 -97 44 -125 26 -61 73 -214 73 -235 0 -9 -6 -6 -17 10 -9 13 -24 31 -32 39
-9 9 -26 30 -39 46 l-23 30 5 -27 c3 -14 9 -33 12 -42 13 -34 -15 -14 -44 32
-85 132 -105 308 -51 448 15 40 17 27 12 -55z m562 -232 c-14 -37 -32 -69 -38
-72 -7 -3 -23 -39 -36 -80 -15 -48 -28 -74 -36 -71 -7 3 -21 -20 -35 -58 -21
-54 -25 -59 -29 -38 -9 38 -35 39 -28 0 11 -54 20 -195 12 -188 -4 4 -23 52
-41 105 -18 54 -44 132 -59 173 -20 56 -25 86 -21 118 3 24 2 41 -2 38 -4 -2
-20 6 -35 18 -23 19 -29 33 -34 77 l-5 54 59 -85 c33 -47 70 -112 83 -145 36
-92 62 -116 79 -72 21 52 73 156 105 207 19 30 45 82 58 115 l23 60 3 -45 c2
-31 -5 -66 -23 -111z m131 94 c-10 -81 -24 -134 -46 -163 -18 -24 -18 -24 -4
36 7 33 20 79 29 103 8 24 15 52 15 62 0 11 3 19 6 19 4 0 4 -26 0 -57z
m-1008 -114 c-3 -8 -7 -3 -11 10 -4 17 -3 21 5 13 5 -5 8 -16 6 -23z m535
-229 c3 -11 1 -18 -4 -14 -5 3 -9 12 -9 20 0 20 7 17 13 -6z"/>
<path d="M1915 2612 c15 -14 75 -32 75 -22 0 5 -10 12 -22 15 -56 16 -63 17
-53 7z"/>
<path d="M1544 2545 c-10 -8 -14 -15 -8 -15 6 0 17 7 24 15 16 19 9 19 -16 0z"/>
<path d="M1509 2500 c-13 -10 -19 -19 -13 -20 6 0 19 9 29 20 23 26 14 26 -16
0z"/>
<path d="M1517 2476 c-44 -48 -83 -106 -72 -106 5 0 24 12 44 27 24 18 30 20
19 7 -20 -22 -25 -45 -7 -27 6 6 17 9 25 6 7 -2 21 0 31 7 15 9 13 10 -11 5
-26 -5 -28 -4 -17 9 8 9 19 16 25 16 7 0 21 7 32 15 17 13 16 14 -16 5 -48
-14 -48 -14 -10 20 l35 30 -29 -6 c-21 -5 -27 -4 -22 5 12 20 -4 12 -27 -13z"/>
<path d="M1446 2338 c-17 -15 -27 -30 -24 -33 6 -6 98 46 98 55 0 16 -50 2
-74 -22z"/>
<path d="M790 2148 c-12 -22 -12 -22 6 -6 10 10 15 20 12 24 -4 3 -12 -5 -18
-18z"/>
<path d="M2271 1024 c0 -11 3 -14 6 -6 3 7 2 16 -1 19 -3 4 -6 -2 -5 -13z"/>
<path d="M1466 807 c3 -10 9 -15 12 -12 3 3 0 11 -7 18 -10 9 -11 8 -5 -6z"/>
<path d="M27 3 c18 -2 48 -2 66 0 17 2 3 4 -33 4 -36 0 -50 -2 -33 -4z"/>
<path d="M3388 3 c18 -2 45 -2 60 0 15 2 0 4 -33 4 -33 0 -45 -2 -27 -4z"/>
</g>
</svg>
